<svg xmlns="http://www.w3.org/2000/svg" style="display: none;">
  <!-- Offline/WiFi Icon -->
  <symbol id="icon-offline" viewBox="0 0 24 24" fill="none" stroke="currentColor">
    <line x1="1" y1="1" x2="23" y2="23"></line>
    <path d="M16.72 11.06A10.94 10.94 0 0 1 19 12.55"></path>
    <path d="M5 12.55a10.94 10.94 0 0 1 5.17-2.39"></path>
    <path d="M10.71 5.05A16 16 0 0 1 22.58 9"></path>
    <path d="M1.42 9a15.91 15.91 0 0 1 4.7-2.88"></path>
    <path d="M8.53 16.11a6 6 0 0 1 6.95 0"></path>
    <line x1="12" y1="20" x2="12.01" y2="20"></line>
  </symbol>

  <!-- Location/Map Pin Icon -->
  <symbol id="icon-location" viewBox="0 0 24 24" fill="none" stroke="currentColor">
    <path d="M21 10c0 7-9 13-9 13s-9-6-9-13a9 9 0 0 1 18 0z"></path>
    <circle cx="12" cy="10" r="3"></circle>
  </symbol>

  <!-- Search Icon -->
  <symbol id="icon-search" viewBox="0 0 24 24" fill="none" stroke="currentColor">
    <circle cx="11" cy="11" r="8"></circle>
    <path d="m21 21-4.35-4.35"></path>
  </symbol>

  <!-- Bar Chart/Compare Icon -->
  <symbol id="icon-compare" viewBox="0 0 24 24" fill="none" stroke="currentColor">
    <line x1="18" y1="20" x2="18" y2="10"></line>
    <line x1="12" y1="20" x2="12" y2="4"></line>
    <line x1="6" y1="20" x2="6" y2="14"></line>
  </symbol>

  <!-- Bookmark Icon -->
  <symbol id="icon-bookmark" viewBox="0 0 24 24" fill="none" stroke="currentColor">
    <path d="M19 21l-7-5-7 5V5a2 2 0 0 1 2-2h10a2 2 0 0 1 2 2z"></path>
  </symbol>

  <!-- Bookmark Filled Icon -->
  <symbol id="icon-bookmark-fill" viewBox="0 0 24 24" fill="currentColor">
    <path d="M6 2a2 2 0 0 0-2 2v18l8-5.333L20 22V4a2 2 0 0 0-2-2H6z" />
  </symbol>

  <!-- Error/Alert Circle Icon -->
  <symbol id="icon-error" viewBox="0 0 24 24" fill="none" stroke="currentColor">
    <circle cx="12" cy="12" r="10"></circle>
    <line x1="12" y1="8" x2="12" y2="12"></line>
    <line x1="12" y1="16" x2="12.01" y2="16"></line>
  </symbol>

  <!-- Population/Users Icon -->
  <symbol id="icon-population" viewBox="0 0 24 24" fill="none" stroke="currentColor">
    <path d="M17 21v-2a4 4 0 0 0-4-4H5a4 4 0 0 0-4 4v2"></path>
    <circle cx="9" cy="7" r="4"></circle>
    <path d="M23 21v-2a4 4 0 0 0-3-3.87"></path>
    <path d="M16 3.13a4 4 0 0 1 0 7.75"></path>
  </symbol>

  <!-- Home/Capital Icon -->
  <symbol id="icon-home" viewBox="0 0 24 24" fill="none" stroke="currentColor">
    <path d="M3 9l9-7 9 7v11a2 2 0 0 1-2 2H5a2 2 0 0 1-2-2z"></path>
    <polyline points="9 22 9 12 15 12 15 22"></polyline>
  </symbol>

  <!-- Globe/Region Icon -->
  <symbol id="icon-globe" viewBox="0 0 24 24" fill="none" stroke="currentColor">
    <circle cx="12" cy="12" r="10"></circle>
    <line x1="2" y1="12" x2="22" y2="12"></line>
    <path d="M12 2a15.3 15.3 0 0 1 4 10 15.3 15.3 0 0 1-4 10 15.3 15.3 0 0 1-4-10 15.3 15.3 0 0 1 4-10z"></path>
  </symbol>

  <!-- Language/Message Icon -->
  <symbol id="icon-language" viewBox="0 0 24 24" fill="none" stroke="currentColor">
    <path d="M21 15a2 2 0 0 1-2 2H7l-4 4V5a2 2 0 0 1 2-2h14a2 2 0 0 1 2 2z"></path>
  </symbol>

  <!-- Currency/Dollar Icon -->
  <symbol id="icon-currency" viewBox="0 0 24 24" fill="none" stroke="currentColor">
    <line x1="12" y1="1" x2="12" y2="23"></line>
    <path d="M17 5H9.5a3.5 3.5 0 0 0 0 7h5a3.5 3.5 0 0 1 0 7H6"></path>
  </symbol>

  <!-- Coordinates/Map Marker Icon -->
  <symbol id="icon-coordinates" viewBox="0 0 24 24" fill="none" stroke="currentColor">
    <circle cx="12" cy="10" r="3"></circle>
    <path d="M12 21.7C17.3 17 20 13 20 10a8 8 0 1 0-16 0c0 3 2.7 7 8 11.7z"></path>
  </symbol>

  <!-- Weather/Sun Icon -->
  <symbol id="icon-weather" viewBox="0 0 24 24" fill="none" stroke="currentColor">
    <path d="M12 2v2m0 16v2M4.93 4.93l1.41 1.41m11.32 11.32l1.41 1.41M2 12h2m16 0h2M6.34 17.66l-1.41 1.41M19.07 4.93l-1.41 1.41"></path>
    <circle cx="12" cy="12" r="4"></circle>
  </symbol>

  <!-- Wind Icon -->
  <symbol id="icon-wind" viewBox="0 0 24 24" fill="none" stroke="currentColor">
    <path d="M9.59 4.59A2 2 0 1 1 11 8H2m10.59 11.41A2 2 0 1 0 14 16H2m15.73-8.27A2.5 2.5 0 1 1 19.5 12H2"></path>
  </symbol>

  <!-- Humidity/Droplet Icon -->
  <symbol id="icon-humidity" viewBox="0 0 24 24" fill="none" stroke="currentColor">
    <path d="M12 2.69l5.66 5.66a8 8 0 1 1-11.31 0z"></path>
  </symbol>

  <!-- Pressure/Gauge Icon -->
  <symbol id="icon-pressure" viewBox="0 0 24 24" fill="none" stroke="currentColor">
    <circle cx="12" cy="12" r="10"></circle>
    <path d="M12 6v2"></path>
    <path d="M6 12h2"></path>
    <path d="M18 12h-2"></path>
    <path d="M7.76 7.76l1.42 1.42"></path>
    <path d="M14.83 9.17l1.41-1.41"></path>
    <circle cx="12" cy="12" r="2"></circle>
    <path d="M12 12l3-5"></path>
  </symbol>

  <!-- UV/Sun Full Icon -->
  <symbol id="icon-uv" viewBox="0 0 24 24" fill="none" stroke="currentColor">
    <circle cx="12" cy="12" r="5"></circle>
    <line x1="12" y1="1" x2="12" y2="3"></line>
    <line x1="12" y1="21" x2="12" y2="23"></line>
    <line x1="4.22" y1="4.22" x2="5.64" y2="5.64"></line>
    <line x1="18.36" y1="18.36" x2="19.78" y2="19.78"></line>
    <line x1="1" y1="12" x2="3" y2="12"></line>
    <line x1="21" y1="12" x2="23" y2="12"></line>
    <line x1="4.22" y1="19.78" x2="5.64" y2="18.36"></line>
    <line x1="18.36" y1="5.64" x2="19.78" y2="4.22"></line>
  </symbol>

  <!-- Clock/Time Icon -->
  <symbol id="icon-clock" viewBox="0 0 24 24" fill="none" stroke="currentColor">
    <circle cx="12" cy="12" r="10"></circle>
    <polyline points="12 6 12 12 16 14"></polyline>
  </symbol>

  <!-- Sunrise Icon -->
  <symbol id="icon-sunrise" viewBox="0 0 24 24" fill="none" stroke="currentColor">
    <path d="M17 18a5 5 0 0 0-10 0"></path>
    <line x1="12" y1="2" x2="12" y2="9"></line>
    <line x1="4.22" y1="10.22" x2="5.64" y2="11.64"></line>
    <line x1="1" y1="18" x2="3" y2="18"></line>
    <line x1="21" y1="18" x2="23" y2="18"></line>
    <line x1="18.36" y1="11.64" x2="19.78" y2="10.22"></line>
    <line x1="23" y1="22" x2="1" y2="22"></line>
    <polyline points="8 6 12 2 16 6"></polyline>
  </symbol>

  <!-- Sunset Icon -->
  <symbol id="icon-sunset" viewBox="0 0 24 24" fill="none" stroke="currentColor">
    <path d="M17 18a5 5 0 0 0-10 0"></path>
    <line x1="12" y1="9" x2="12" y2="2"></line>
    <line x1="4.22" y1="10.22" x2="5.64" y2="11.64"></line>
    <line x1="1" y1="18" x2="3" y2="18"></line>
    <line x1="21" y1="18" x2="23" y2="18"></line>
    <line x1="18.36" y1="11.64" x2="19.78" y2="10.22"></line>
    <line x1="23" y1="22" x2="1" y2="22"></line>
    <polyline points="16 5 12 9 8 5"></polyline>
  </symbol>

  <!-- Map Icon -->
  <symbol id="icon-map" viewBox="0 0 24 24" fill="none" stroke="currentColor">
    <polygon points="1 6 1 22 8 18 16 22 23 18 23 2 16 6 8 2 1 6"></polygon>
    <line x1="8" y1="2" x2="8" y2="18"></line>
    <line x1="16" y1="6" x2="16" y2="22"></line>
  </symbol>

  <!-- Zoom In Icon -->
  <symbol id="icon-zoom-in" viewBox="0 0 24 24" fill="none" stroke="currentColor">
    <circle cx="11" cy="11" r="8"></circle>
    <line x1="21" y1="21" x2="16.65" y2="16.65"></line>
    <line x1="11" y1="8" x2="11" y2="14"></line>
    <line x1="8" y1="11" x2="14" y2="11"></line>
  </symbol>

  <!-- Zoom Out Icon -->
  <symbol id="icon-zoom-out" viewBox="0 0 24 24" fill="none" stroke="currentColor">
    <circle cx="11" cy="11" r="8"></circle>
    <line x1="21" y1="21" x2="16.65" y2="16.65"></line>
    <line x1="8" y1="11" x2="14" y2="11"></line>
  </symbol>

  <!-- Fullscreen Icon -->
  <symbol id="icon-fullscreen" viewBox="0 0 24 24" fill="none" stroke="currentColor">
    <polyline points="15 3 21 3 21 9"></polyline>
    <polyline points="9 21 3 21 3 15"></polyline>
    <line x1="21" y1="3" x2="14" y2="10"></line>
    <line x1="3" y1="21" x2="10" y2="14"></line>
  </symbol>

  <!-- Star Icon -->
  <symbol id="icon-star" viewBox="0 0 24 24" fill="none" stroke="currentColor">
    <polygon points="12 2 15.09 8.26 22 9.27 17 14.14 18.18 21.02 12 17.77 5.82 21.02 7 14.14 2 9.27 8.91 8.26 12 2"></polygon>
  </symbol>

  <!-- Close/X Icon -->
  <symbol id="icon-close" viewBox="0 0 24 24" fill="none" stroke="currentColor">
    <line x1="18" y1="6" x2="6" y2="18"></line>
    <line x1="6" y1="6" x2="18" y2="18"></line>
  </symbol>

  <!-- History/Refresh Icon -->
  <symbol id="icon-history" viewBox="0 0 24 24" fill="none" stroke="currentColor">
    <polyline points="23 4 23 10 17 10"></polyline>
    <path d="M20.49 15a9 9 0 1 1-2.12-9.36L23 10"></path>
  </symbol>

  <!-- Alert Triangle Icon -->
  <symbol id="icon-alert-triangle" viewBox="0 0 24 24" fill="none" stroke="currentColor">
    <path d="M10.29 3.86L1.82 18a2 2 0 0 0 1.71 3h16.94a2 2 0 0 0 1.71-3L13.71 3.86a2 2 0 0 0-3.42 0z"></path>
    <line x1="12" y1="9" x2="12" y2="13"></line>
    <line x1="12" y1="17" x2="12.01" y2="17"></line>
  </symbol>
  <!-- Trash Icon -->
  <symbol id="icon-trash" viewBox="0 0 24 24" fill="none" stroke="currentColor">
    <polyline points="3 6 5 6 21 6"></polyline>
    <path d="M19 6v14a2 2 0 0 1-2 2H7a2 2 0 0 1-2-2V6m3 0V4a2 2 0 0 1 2-2h4a2 2 0 0 1 2 2v2"></path>
  </symbol>
</svg>
